<?xml version="1.0" standalone="no"?><!-- Generator: Gravit.io --><svg xmlns="http://www.w3.org/2000/svg" xmlns:xlink="http://www.w3.org/1999/xlink" style="isolation:isolate" viewBox="0 0 512 256" width="512" height="256"><defs><clipPath id="_clipPath_q3Ua5WPG9X3dA70MRZ1ug2ARElMiysSJ"><rect width="512" height="256"/></clipPath></defs><g clip-path="url(#_clipPath_q3Ua5WPG9X3dA70MRZ1ug2ARElMiysSJ)"><g id="Group"><defs><filter id="cHVudzbrBQ2CJG0jNPFm7Epib205WyaO" x="-200%" y="-200%" width="400%" height="400%"><feOffset xmlns="http://www.w3.org/2000/svg" in="SourceAlpha" result="offOut" dx="0" dy="0"/><feGaussianBlur xmlns="http://www.w3.org/2000/svg" in="offOut" result="blurOut" stdDeviation="2.5"/><feComponentTransfer xmlns="http://www.w3.org/2000/svg" in="blurOut" result="opacOut"><feFuncA xmlns="http://www.w3.org/2000/svg" type="table" tableValues="0 0.5"/></feComponentTransfer><feBlend xmlns="http://www.w3.org/2000/svg" in="SourceGraphic" in2="opacOut" mode="normal"/></filter></defs><g filter="url(#cHVudzbrBQ2CJG0jNPFm7Epib205WyaO)"><path d="M 184 28 L 328 28 C 329.656 28 331 29.344 331 31 L 331 225 C 331 226.656 329.656 228 328 228 L 184 228 C 182.344 228 181 226.656 181 225 L 181 31 C 181 29.344 182.344 28 184 28 Z" style="stroke:none;fill:#1D1D1D;stroke-miterlimit:10;"/></g><g id="ic_warning_48px"><path d=" M 232 104 L 280 104 L 280 152 L 232 152 L 232 104 Z " fill="none"/><path d=" M 234 146 L 278 146 L 256 108 L 234 146 Z  M 258 140 L 254 140 L 254 136 L 258 136 L 258 140 Z  M 258 132 L 254 132 L 254 124 L 258 124 L 258 132 Z " fill="rgb(244,67,54)"/></g></g><g id="Group"><defs><filter id="mus5hysAZhLwu6bXMOLrMCeg8QRvpyK5" x="-200%" y="-200%" width="400%" height="400%"><feOffset xmlns="http://www.w3.org/2000/svg" in="SourceAlpha" result="offOut" dx="0" dy="0"/><feGaussianBlur xmlns="http://www.w3.org/2000/svg" in="offOut" result="blurOut" stdDeviation="2.5"/><feComponentTransfer xmlns="http://www.w3.org/2000/svg" in="blurOut" result="opacOut"><feFuncA xmlns="http://www.w3.org/2000/svg" type="table" tableValues="0 0.5"/></feComponentTransfer><feBlend xmlns="http://www.w3.org/2000/svg" in="SourceGraphic" in2="opacOut" mode="normal"/></filter></defs><g filter="url(#mus5hysAZhLwu6bXMOLrMCeg8QRvpyK5)"><path d="M 54.75 53 L 162.75 53 C 163.992 53 165 54.008 165 55.25 L 165 200.75 C 165 201.992 163.992 203 162.75 203 L 54.75 203 C 53.508 203 52.5 201.992 52.5 200.75 L 52.5 55.25 C 52.5 54.008 53.508 53 54.75 53 Z" style="stroke:none;fill:#1D1D1D;stroke-miterlimit:10;"/></g><g id="ic_gamepad_48px"><path d=" M 96.75 116 L 120.75 116 L 120.75 140 L 96.75 140 L 96.75 116 Z " fill="none"/><path d=" M 111.75 123.5 L 111.75 118 L 105.75 118 L 105.75 123.5 L 108.75 126.5 L 111.75 123.5 Z  M 104.25 125 L 98.75 125 L 98.75 131 L 104.25 131 L 107.25 128 L 104.25 125 Z  M 105.75 132.5 L 105.75 138 L 111.75 138 L 111.75 132.5 L 108.75 129.5 L 105.75 132.5 Z  M 113.25 125 L 110.25 128 L 113.25 131 L 118.75 131 L 118.75 125 L 113.25 125 Z " fill="rgb(39,39,39)"/></g></g><g id="Group"><defs><filter id="secyACecQxmUzvUd03msvhsmzkojlvlZ" x="-200%" y="-200%" width="400%" height="400%"><feOffset xmlns="http://www.w3.org/2000/svg" in="SourceAlpha" result="offOut" dx="0" dy="0"/><feGaussianBlur xmlns="http://www.w3.org/2000/svg" in="offOut" result="blurOut" stdDeviation="2.5"/><feComponentTransfer xmlns="http://www.w3.org/2000/svg" in="blurOut" result="opacOut"><feFuncA xmlns="http://www.w3.org/2000/svg" type="table" tableValues="0 0.5"/></feComponentTransfer><feBlend xmlns="http://www.w3.org/2000/svg" in="SourceGraphic" in2="opacOut" mode="normal"/></filter></defs><g filter="url(#secyACecQxmUzvUd03msvhsmzkojlvlZ)"><path d="M 349.25 53 L 457.25 53 C 458.492 53 459.5 54.008 459.5 55.25 L 459.5 200.75 C 459.5 201.992 458.492 203 457.25 203 L 349.25 203 C 348.008 203 347 201.992 347 200.75 L 347 55.25 C 347 54.008 348.008 53 349.25 53 Z" style="stroke:none;fill:#1D1D1D;stroke-miterlimit:10;"/></g><g id="ic_gamepad_48px"><path d=" M 391.25 116 L 415.25 116 L 415.25 140 L 391.25 140 L 391.25 116 Z " fill="none"/><path d=" M 406.25 123.5 L 406.25 118 L 400.25 118 L 400.25 123.5 L 403.25 126.5 L 406.25 123.5 Z  M 398.75 125 L 393.25 125 L 393.25 131 L 398.75 131 L 401.75 128 L 398.75 125 Z  M 400.25 132.5 L 400.25 138 L 406.25 138 L 406.25 132.5 L 403.25 129.5 L 400.25 132.5 Z  M 407.75 125 L 404.75 128 L 407.75 131 L 413.25 131 L 413.25 125 L 407.75 125 Z " fill="rgb(39,39,39)"/></g></g></g></svg>